<svg width="20" height="18" viewBox="0 0 20 18" fill="none" xmlns="http://www.w3.org/2000/svg">
<path d="M18.25 0.75H1.75C1.35218 0.75 0.970644 0.908035 0.68934 1.18934C0.408035 1.47064 0.25 1.85218 0.25 2.25V15.75C0.25 16.1478 0.408035 16.5294 0.68934 16.8107C0.970644 17.092 1.35218 17.25 1.75 17.25H18.25C18.6478 17.25 19.0294 17.092 19.3107 16.8107C19.592 16.5294 19.75 16.1478 19.75 15.75V2.25C19.75 1.85218 19.592 1.47064 19.3107 1.18934C19.0294 0.908035 18.6478 0.75 18.25 0.75ZM18.25 15.75H1.75V2.25H18.25V15.75ZM14.5 5.25C14.5 6.44347 14.0259 7.58807 13.182 8.43198C12.3381 9.27589 11.1935 9.75 10 9.75C8.80653 9.75 7.66193 9.27589 6.81802 8.43198C5.97411 7.58807 5.5 6.44347 5.5 5.25C5.5 5.05109 5.57902 4.86032 5.71967 4.71967C5.86032 4.57902 6.05109 4.5 6.25 4.5C6.44891 4.5 6.63968 4.57902 6.78033 4.71967C6.92098 4.86032 7 5.05109 7 5.25C7 6.04565 7.31607 6.80871 7.87868 7.37132C8.44129 7.93393 9.20435 8.25 10 8.25C10.7956 8.25 11.5587 7.93393 12.1213 7.37132C12.6839 6.80871 13 6.04565 13 5.25C13 5.05109 13.079 4.86032 13.2197 4.71967C13.3603 4.57902 13.5511 4.5 13.75 4.5C13.9489 4.5 14.1397 4.57902 14.2803 4.71967C14.421 4.86032 14.5 5.05109 14.5 5.25Z" fill="#FDFBF6"/>
</svg>
