<svg width="256" height="256" viewBox="0 0 256 256" fill="none" xmlns="http://www.w3.org/2000/svg">
<path d="M216 40H40C35.7565 40 31.6869 41.6857 28.6863 44.6863C25.6857 47.6869 24 51.7565 24 56V200C24 204.243 25.6857 208.313 28.6863 211.314C31.6869 214.314 35.7565 216 40 216H216C220.243 216 224.313 214.314 227.314 211.314C230.314 208.313 232 204.243 232 200V56C232 51.7565 230.314 47.6869 227.314 44.6863C224.313 41.6857 220.243 40 216 40ZM216 200H40V56H216V200ZM176 88C176 100.73 170.943 112.939 161.941 121.941C152.939 130.943 140.73 136 128 136C115.27 136 103.061 130.943 94.0589 121.941C85.0571 112.939 80 100.73 80 88C80 85.8783 80.8429 83.8434 82.3431 82.3431C83.8434 80.8429 85.8783 80 88 80C90.1217 80 92.1566 80.8429 93.6569 82.3431C95.1571 83.8434 96 85.8783 96 88C96 96.4869 99.3714 104.626 105.373 110.627C111.374 116.629 119.513 120 128 120C136.487 120 144.626 116.629 150.627 110.627C156.629 104.626 160 96.4869 160 88C160 85.8783 160.843 83.8434 162.343 82.3431C163.843 80.8429 165.878 80 168 80C170.122 80 172.157 80.8429 173.657 82.3431C175.157 83.8434 176 85.8783 176 88Z" fill="black"/>
</svg>
