<svg width="256" height="256" viewBox="0 0 256 256" fill="none" xmlns="http://www.w3.org/2000/svg">
<path d="M224 128C224 130.122 223.157 132.157 221.657 133.657C220.157 135.157 218.122 136 216 136H40C37.8783 136 35.8434 135.157 34.3431 133.657C32.8429 132.157 32 130.122 32 128C32 125.878 32.8429 123.843 34.3431 122.343C35.8434 120.843 37.8783 120 40 120H216C218.122 120 220.157 120.843 221.657 122.343C223.157 123.843 224 125.878 224 128ZM40 72H216C218.122 72 220.157 71.1571 221.657 69.6569C223.157 68.1566 224 66.1217 224 64C224 61.8783 223.157 59.8434 221.657 58.3431C220.157 56.8429 218.122 56 216 56H40C37.8783 56 35.8434 56.8429 34.3431 58.3431C32.8429 59.8434 32 61.8783 32 64C32 66.1217 32.8429 68.1566 34.3431 69.6569C35.8434 71.1571 37.8783 72 40 72ZM216 184H40C37.8783 184 35.8434 184.843 34.3431 186.343C32.8429 187.843 32 189.878 32 192C32 194.122 32.8429 196.157 34.3431 197.657C35.8434 199.157 37.8783 200 40 200H216C218.122 200 220.157 199.157 221.657 197.657C223.157 196.157 224 194.122 224 192C224 189.878 223.157 187.843 221.657 186.343C220.157 184.843 218.122 184 216 184Z" fill="#2A3D45"/>
</svg>
