<svg width="256" height="256" viewBox="0 0 256 256" fill="none" xmlns="http://www.w3.org/2000/svg">
<path d="M231.9 212C216.973 186.285 193.079 166.985 164.8 157.8C178.355 149.74 188.889 137.452 194.783 122.824C200.677 108.197 201.605 92.039 197.425 76.8326C193.246 61.6263 184.189 48.2128 171.647 38.6528C159.105 29.0928 143.771 23.915 128 23.915C112.23 23.915 96.8958 29.0928 84.3535 38.6528C71.8113 48.2128 62.7546 61.6263 58.575 76.8326C54.3953 92.039 55.3238 108.197 61.2179 122.824C67.1119 137.452 77.6454 149.74 91.2002 157.8C62.9212 166.985 39.0276 186.285 24.1002 212C23.4741 212.908 23.0426 213.936 22.8329 215.019C22.6232 216.103 22.6397 217.217 22.8815 218.294C23.1233 219.37 23.5851 220.385 24.2379 221.274C24.8907 222.163 25.7203 222.908 26.6748 223.461C27.6292 224.015 28.6877 224.365 29.7839 224.489C30.88 224.614 31.9901 224.51 33.0443 224.185C34.0985 223.86 35.0741 223.321 35.9098 222.6C36.7455 221.88 37.4231 220.995 37.9002 220C47.044 204.2 60.1821 191.082 75.9963 181.962C91.8105 172.843 109.745 168.042 128 168.042C146.256 168.042 164.19 172.843 180.004 181.962C195.818 191.082 208.956 204.2 218.1 220C218.577 220.995 219.255 221.88 220.091 222.6C220.926 223.321 221.902 223.86 222.956 224.185C224.01 224.51 225.12 224.614 226.217 224.489C227.313 224.365 228.371 224.015 229.326 223.461C230.28 222.908 231.11 222.163 231.763 221.274C232.415 220.385 232.877 219.37 233.119 218.294C233.361 217.217 233.377 216.103 233.168 215.019C232.958 213.936 232.526 212.908 231.9 212ZM72.0002 96.0001C72.0002 84.9243 75.2846 74.0973 81.4379 64.8882C87.5913 55.679 96.3373 48.5013 106.57 44.2628C116.803 40.0243 128.062 38.9153 138.925 41.0761C149.788 43.2369 159.766 48.5704 167.598 56.4021C175.43 64.2339 180.763 74.2121 182.924 85.075C185.085 95.938 183.976 107.198 179.737 117.43C175.499 127.663 168.321 136.409 159.112 142.562C149.903 148.716 139.076 152 128 152C113.148 152 98.9043 146.1 88.4022 135.598C77.9002 125.096 72.0002 110.852 72.0002 96.0001Z" fill="#2A3D45"/>
</svg>
