<svg width="20" height="20" viewBox="0 0 20 20" fill="none" xmlns="http://www.w3.org/2000/svg">
<path d="M19.5328 18.466L15.4734 14.416C16.9061 12.7103 17.625 10.5174 17.4801 8.29452C17.3353 6.07167 16.3379 3.99057 14.6959 2.48525C13.0539 0.979924 10.8942 0.166608 8.6672 0.214927C6.44016 0.263245 4.31776 1.16947 2.74264 2.74459C1.16751 4.31971 0.261292 6.44212 0.212973 8.66915C0.164655 10.8962 0.977971 13.0559 2.48329 14.6979C3.98862 16.3398 6.06972 17.3372 8.29256 17.4821C10.5154 17.627 12.7084 16.9081 14.4141 15.4754L18.4641 19.5348C18.6074 19.6734 18.799 19.7509 18.9984 19.7509C19.1978 19.7509 19.3895 19.6734 19.5328 19.5348C19.6736 19.3926 19.7527 19.2005 19.7527 19.0004C19.7527 18.8003 19.6736 18.6082 19.5328 18.466ZM1.74844 8.87539C1.74844 7.4662 2.16631 6.08865 2.94922 4.91695C3.73212 3.74525 4.84489 2.83202 6.14682 2.29275C7.44874 1.75347 8.88134 1.61237 10.2635 1.88729C11.6456 2.16221 12.9151 2.8408 13.9116 3.83725C14.908 4.8337 15.5866 6.10326 15.8615 7.48537C16.1365 8.86749 15.9954 10.3001 15.4561 11.602C14.9168 12.9039 14.0036 14.0167 12.8319 14.7996C11.6602 15.5825 10.2826 16.0004 8.87344 16.0004C6.98453 15.9979 5.1737 15.2464 3.83804 13.9108C2.50238 12.5751 1.75092 10.7643 1.74844 8.87539Z" fill="#FDFBF6"/>
</svg>
