<svg width="256" height="256" viewBox="0 0 256 256" fill="none" xmlns="http://www.w3.org/2000/svg">
<path d="M229.7 218.3L186.4 175.1C201.682 156.905 209.35 133.514 207.805 109.804C206.26 86.0933 195.621 63.8949 178.106 47.8381C160.592 31.7813 137.555 23.1059 113.8 23.6213C90.0452 24.1367 67.4062 33.8031 50.6049 50.6044C33.8036 67.4057 24.1372 90.0447 23.6218 113.8C23.1064 137.555 31.7818 160.592 47.8386 178.106C63.8953 195.62 86.0938 206.259 109.804 207.804C133.514 209.35 156.906 201.682 175.1 186.4L218.3 229.7C219.829 231.178 221.873 232.005 224 232.005C226.127 232.005 228.171 231.178 229.7 229.7C231.202 228.183 232.045 226.134 232.045 224C232.045 221.865 231.202 219.816 229.7 218.3ZM40.0001 116C40.0001 100.968 44.4574 86.2744 52.8084 73.7763C61.1594 61.2781 73.029 51.537 86.9161 45.7848C100.803 40.0325 116.084 38.5274 130.827 41.4599C145.569 44.3924 159.111 51.6307 169.74 62.2595C180.369 72.8883 187.607 86.4302 190.54 101.173C193.472 115.915 191.967 131.196 186.215 145.084C180.463 158.971 170.722 170.84 158.223 179.191C145.725 187.542 131.031 192 116 192C95.8518 191.973 76.5362 183.958 62.2892 169.71C48.0422 155.463 40.0265 136.148 40.0001 116Z" fill="black"/>
</svg>
