<svg xmlns="http://www.w3.org/2000/svg" viewBox="0 0 162.07 48.72"><defs><style>.cls-1{fill:#fff;}</style></defs><g id="레이어_2" data-name="레이어 2"><g id="BI"><path class="cls-1" d="M108.38.64,86.28,23.8V.63H79.47V26.76a5.55,5.55,0,0,0,3.34,5.14,5.65,5.65,0,0,0,2.31.5,5.58,5.58,0,0,0,3.74-1.46L99.72,19.57l9,12.83H117L104.51,14.55,117.79.63Z"/><path class="cls-1" d="M140.27,0a7.63,7.63,0,0,0-6.75,4.05L118.43,32.4h7.7L139.52,7.25c.13-.24.45-.83.75-1.36.29.53.62,1.12.74,1.36L154.36,32.4h7.71L147,4.06A7.64,7.64,0,0,0,140.27,0Z"/><path class="cls-1" d="M24.4,0H14.85A14.86,14.86,0,0,0,0,14.86v3.31A14.86,14.86,0,0,0,14.85,33H24.4A14.86,14.86,0,0,0,39.24,18.17V14.86A14.86,14.86,0,0,0,24.4,0ZM6.8,14.86a8.06,8.06,0,0,1,8.05-8H24.4a8.06,8.06,0,0,1,8,8.05v3.31a8.06,8.06,0,0,1-8,8H14.85a8.06,8.06,0,0,1-8-8Z"/><path class="cls-1" d="M65.27,13.12H49.76V7.44h23V.64H52.6a9.64,9.64,0,0,0,0,19.28H68.1v5.67h-23V32.4H65.27a9.64,9.64,0,1,0,0-19.28Z"/><path class="cls-1" d="M2.2,48.59V41.27H6.56v.83H3.16v2.31H5.78v.81H3.16v2.56H6.59v.81Z"/><path class="cls-1" d="M12.72,48.59l2.38-3.73-2.26-3.59h1.08l1.82,2.88h0l1.69-2.88h1l-2.19,3.6,2.31,3.72H17.5l-1.87-3h0l-1.89,3Z"/><path class="cls-1" d="M26.52,48.59V42.1H24.35v-.83h5.28v.83H27.46v6.49Z"/><path class="cls-1" d="M36,48.59V41.27h4.36v.83H37v2.31h2.62v.81H37v2.56h3.43v.81Z"/><path class="cls-1" d="M47.09,48.59V41.27h2.15c1.64,0,2.45.69,2.45,2.08a1.89,1.89,0,0,1-1.38,1.92v0l1.92,3.27h-1.1L49.36,45.5H48.05v3.09Zm1-3.85h1.14a1.65,1.65,0,0,0,1.14-.33,1.37,1.37,0,0,0,.35-1,1.24,1.24,0,0,0-.35-1,1.85,1.85,0,0,0-1.15-.29H48.05Z"/><path class="cls-1" d="M58.56,48.59V41.27h1v7.32Z"/><path class="cls-1" d="M69.32,48.71a3,3,0,0,1-2.35-1A4,4,0,0,1,66.11,45v-.21A3.89,3.89,0,0,1,67,42.14a3,3,0,0,1,2.38-1,3,3,0,0,1,2.35,1,4,4,0,0,1,.85,2.72V45a4,4,0,0,1-.86,2.69A3,3,0,0,1,69.32,48.71Zm0-.78A1.88,1.88,0,0,0,71,47.17a3.25,3.25,0,0,0,.55-2v-.35c0-1.93-.74-2.89-2.21-2.89a1.88,1.88,0,0,0-1.62.74,3.24,3.24,0,0,0-.55,2V45C67.15,47,67.88,47.93,69.35,47.93Z"/><path class="cls-1" d="M79.14,48.59V41.27h2.15c1.63,0,2.45.69,2.45,2.08a1.89,1.89,0,0,1-1.38,1.92v0l1.91,3.27h-1.1L81.41,45.5H80.1v3.09Zm1-3.85h1.13a1.62,1.62,0,0,0,1.14-.33,1.34,1.34,0,0,0,.36-1,1.21,1.21,0,0,0-.36-1,1.83,1.83,0,0,0-1.15-.29H80.1Z"/><path class="cls-1" d="M98.64,48.59V41.27h1.41l2,6.06h0l2-6.06h1.41v7.32h-1v-6h0l-2,6h-.9l-2-6h0v6Z"/><path class="cls-1" d="M111.72,48.59l2.67-7.32h.93L118,48.59h-1l-.74-2.06h-2.85l-.73,2.06Zm3-6-1.11,3.16h2.28l-1.14-3.16Z"/><path class="cls-1" d="M127.63,48.15a2.61,2.61,0,0,1-1.85.57,4.24,4.24,0,0,1-2.1-.47v-.82a4.39,4.39,0,0,0,2,.48c1,0,1.53-.42,1.53-1.27a1.08,1.08,0,0,0-.25-.77,2.22,2.22,0,0,0-.9-.5l-.76-.25a2.66,2.66,0,0,1-1.19-.73,1.91,1.91,0,0,1-.39-1.27,1.83,1.83,0,0,1,.59-1.43,2.51,2.51,0,0,1,1.73-.54,3.8,3.8,0,0,1,1.78.4v.81a4.38,4.38,0,0,0-1.82-.39,1.48,1.48,0,0,0-1,.28.94.94,0,0,0-.35.79,1.21,1.21,0,0,0,.22.76,1.72,1.72,0,0,0,.79.46l.75.25a3.05,3.05,0,0,1,1.32.74,1.83,1.83,0,0,1,.43,1.32A2,2,0,0,1,127.63,48.15Z"/><path class="cls-1" d="M136.32,48.59V42.1h-2.17v-.83h5.29v.83h-2.17v6.49Z"/><path class="cls-1" d="M145.79,48.59V41.27h4.36v.83h-3.4v2.31h2.63v.81h-2.63v2.56h3.43v.81Z"/><path class="cls-1" d="M156.9,48.59V41.27h2.15c1.63,0,2.45.69,2.45,2.08a1.89,1.89,0,0,1-1.38,1.92v0L162,48.59h-1.1l-1.76-3.09h-1.31v3.09Zm1-3.85H159a1.62,1.62,0,0,0,1.14-.33,1.34,1.34,0,0,0,.36-1,1.21,1.21,0,0,0-.36-1A1.83,1.83,0,0,0,159,42.1h-1.12Z"/></g></g></svg>