<svg width="256" height="256" viewBox="0 0 256 256" fill="none" xmlns="http://www.w3.org/2000/svg">
<path d="M205.7 194.3C207.202 195.817 208.045 197.865 208.045 200C208.045 202.135 207.202 204.183 205.7 205.7C204.171 207.179 202.127 208.005 200 208.005C197.873 208.005 195.829 207.179 194.3 205.7L128 139.3L61.7001 205.7C60.171 207.179 58.1271 208.005 56.0001 208.005C53.873 208.005 51.8292 207.179 50.3001 205.7C48.7978 204.183 47.9551 202.135 47.9551 200C47.9551 197.865 48.7978 195.817 50.3001 194.3L116.7 128L50.3001 61.7002C49.0244 60.1458 48.3724 58.1725 48.4711 56.1641C48.5697 54.1557 49.4119 52.2557 50.8338 50.8339C52.2556 49.412 54.1556 48.5698 56.164 48.4712C58.1724 48.3725 60.1457 49.0245 61.7001 50.3002L128 116.7L194.3 50.3002C195.854 49.0245 197.828 48.3725 199.836 48.4712C201.845 48.5698 203.745 49.412 205.166 50.8339C206.588 52.2557 207.43 54.1557 207.529 56.1641C207.628 58.1725 206.976 60.1458 205.7 61.7002L139.3 128L205.7 194.3Z" fill="#2A3D45"/>
</svg>
