<svg width="20" height="20" viewBox="0 0 20 20" fill="none" xmlns="http://www.w3.org/2000/svg">
<path d="M19.7387 17.8752C18.3393 15.4644 16.0993 13.655 13.4481 12.7939C14.7189 12.0382 15.7064 10.8863 16.259 9.51495C16.8115 8.14362 16.8986 6.62881 16.5067 5.20321C16.1149 3.77762 15.2658 2.5201 14.09 1.62385C12.9142 0.727599 11.4766 0.242187 9.99811 0.242188C8.51965 0.242187 7.08207 0.727599 5.90624 1.62385C4.7304 2.5201 3.88134 3.77762 3.4895 5.20321C3.09766 6.62881 3.1847 8.14362 3.73727 9.51495C4.28983 10.8863 5.27735 12.0382 6.54811 12.7939C3.89695 13.655 1.65693 15.4644 0.257488 17.8752C0.198791 17.9603 0.15834 18.0567 0.138678 18.1582C0.119016 18.2598 0.120567 18.3643 0.143234 18.4652C0.165902 18.5661 0.209195 18.6612 0.270394 18.7446C0.331593 18.828 0.409375 18.8978 0.498852 18.9497C0.588329 19.0015 0.687568 19.0343 0.790332 19.046C0.893096 19.0577 0.997164 19.048 1.096 19.0175C1.19483 18.987 1.28629 18.9364 1.36464 18.8689C1.44298 18.8014 1.50651 18.7184 1.55124 18.6252C2.40847 17.1439 3.64016 15.9141 5.12275 15.0591C6.60533 14.2042 8.28668 13.7541 9.99811 13.7541C11.7095 13.7541 13.3909 14.2042 14.8735 15.0591C16.3561 15.9141 17.5878 17.1439 18.445 18.6252C18.4897 18.7184 18.5532 18.8014 18.6316 18.8689C18.7099 18.9364 18.8014 18.987 18.9002 19.0175C18.9991 19.048 19.1031 19.0577 19.2059 19.046C19.3087 19.0343 19.4079 19.0015 19.4974 18.9497C19.5869 18.8978 19.6646 18.828 19.7258 18.7446C19.787 18.6612 19.8303 18.5661 19.853 18.4652C19.8757 18.3643 19.8772 18.2598 19.8575 18.1582C19.8379 18.0567 19.7974 17.9603 19.7387 17.8752ZM4.74811 7.00016C4.74811 5.96181 5.05602 4.94678 5.6329 4.08342C6.20977 3.22006 7.02971 2.54715 7.98903 2.14979C8.94834 1.75243 10.0039 1.64847 11.0223 1.85104C12.0407 2.05361 12.9762 2.55363 13.7104 3.28785C14.4446 4.02208 14.9447 4.95754 15.1472 5.97594C15.3498 6.99434 15.2458 8.04994 14.8485 9.00925C14.4511 9.96856 13.7782 10.7885 12.9149 11.3654C12.0515 11.9423 11.0365 12.2502 9.99811 12.2502C8.60573 12.2502 7.27037 11.697 6.2858 10.7125C5.30124 9.7279 4.74811 8.39255 4.74811 7.00016Z" fill="#FDFBF6"/>
</svg>
