<?xml version="1.0" encoding="UTF-8"?>
<svg id="_레이어_2" data-name="레이어 2" xmlns="http://www.w3.org/2000/svg" xmlns:xlink="http://www.w3.org/1999/xlink" viewBox="0 0 550 550">
  <defs>
    <style>
      .cls-1 {
        fill: #231916;
      }

      .cls-2 {
        fill: none;
      }

      .cls-3 {
        clip-path: url(#clippath-1);
      }

      .cls-4 {
        fill: #e6002d;
      }

      .cls-5 {
        fill: #003668;
      }

      .cls-6 {
        clip-path: url(#clippath);
      }
    </style>
    <clipPath id="clippath">
      <rect class="cls-2" width="550" height="550"/>
    </clipPath>
    <clipPath id="clippath-1">
      <rect class="cls-2" x="92.33" y="19.93" width="365.34" height="510.15"/>
    </clipPath>
  </defs>
  <g id="Layer_1" data-name="Layer 1">
    <g class="cls-6">
      <g>
        <path class="cls-1" d="M99.58,486.38v12.05h76.19v28.03h14.4v-40.09h-90.59ZM92.33,478.2h106.42v-12.08h-106.42v12.08ZM100.89,412.41v45.94h89.43v-11.29h-75.42v-6.11h75.13v-10.76h-75.13v-5.98h75.13v-11.8h-89.14Z"/>
        <g class="cls-3">
          <path class="cls-1" d="M311.6,410.52h14.4v115.78h-14.4v-54.24h-14.78v-13.5h14.78v-48.04ZM276.97,474.13c0-4.51-1.61-8.33-4.8-11.49-3.21-3.16-7.07-4.75-11.55-4.75s-8.35,1.59-11.54,4.75c-3.22,3.16-4.82,6.98-4.82,11.49s1.59,8.42,4.82,11.54c3.2,3.11,7.04,4.68,11.54,4.68s8.35-1.57,11.55-4.68c3.19-3.13,4.8-6.98,4.8-11.54M290.59,474.13c0,3.99-.8,7.64-2.42,11.03-1.59,3.39-3.73,6.4-6.41,9.08-2.69,2.6-5.85,4.65-9.53,6.17-3.67,1.51-7.56,2.26-11.61,2.26s-7.96-.76-11.63-2.26c-3.68-1.52-6.86-3.57-9.53-6.17-2.77-2.67-4.96-5.69-6.56-9.08-1.6-3.39-2.4-7.04-2.4-11.03s.79-7.55,2.4-10.97c1.59-3.42,3.79-6.45,6.56-9.15,2.67-2.59,5.85-4.65,9.53-6.16,3.66-1.51,7.55-2.28,11.63-2.28s7.94.77,11.61,2.28c3.68,1.51,6.84,3.57,9.53,6.16,2.68,2.7,4.83,5.73,6.41,9.15,1.62,3.43,2.42,7.08,2.42,10.97M296.55,425.99v12.31h-73.31v-12.31h29.45v-13.65h15.7v13.65h28.16Z"/>
          <path class="cls-1" d="M443.25,472.19v-22.07h-20.24v-12.33h20.24v-27.27h14.42v61.67h-14.42ZM433.65,501.51c0-4.31-1.58-8.03-4.72-11.15-3.17-3.11-6.96-4.68-11.36-4.68s-8.05,1.57-11.17,4.68c-3.12,3.13-4.67,6.84-4.67,11.15s1.55,8.16,4.67,11.23c3.12,3.07,6.84,4.61,11.17,4.61s8.19-1.53,11.36-4.61c3.14-3.07,4.72-6.83,4.72-11.23M447.8,501.65c0,3.88-.8,7.55-2.4,10.97-1.61,3.4-3.75,6.43-6.44,9.01-2.68,2.6-5.85,4.66-9.53,6.16-3.68,1.52-7.59,2.29-11.74,2.29s-7.97-.77-11.68-2.29c-3.72-1.5-6.92-3.55-9.6-6.16-2.69-2.58-4.84-5.61-6.43-9.01-1.6-3.42-2.4-7.09-2.4-10.97s.79-7.55,2.4-10.95c1.59-3.45,3.74-6.47,6.43-9.05,2.68-2.59,5.88-4.63,9.6-6.16,3.71-1.51,7.6-2.27,11.68-2.27s8.06.77,11.74,2.27c3.68,1.53,6.85,3.57,9.53,6.16,2.69,2.58,4.83,5.6,6.44,9.05,1.59,3.39,2.4,7.04,2.4,10.95M355.4,432.21v-12.06h27.12v-11.05h15.32v11.05h25.82v12.06h-28.16l29.2,29.58-9.34,8.83-25.18-26.21-24.91,28.28-9.61-8.96,29.32-31.53h-29.57Z"/>
          <path class="cls-5" d="M364.63,184.73c-29.99-20.41-68.41-12.08-88.56,18.57-16.85,25.6-42.26,28.79-52.11,28.79-32.1,0-54.03-22.56-60.55-45.91h-.02c-.06-.23-.12-.43-.18-.66-.05-.26-.14-.52-.2-.79-2.56-9.74-3.18-14.4-3.18-24.76,0-55.84,57.29-118.02,139.82-118.02s132.87,64.34,145.34,100.09c-.23-.62-.43-1.25-.65-1.9-23.97-69.93-90.29-120.21-168.36-120.21-98.27,0-177.95,79.66-177.95,177.95,0,87.84,63.36,163.05,151.25,163.05,70.1,0,117.2-39.3,138.81-93.48,11.87-29.62,3.47-64.43-23.46-82.71"/>
          <path class="cls-4" d="M446.07,145.5c-10.4-34.88-59.11-103.56-146.43-103.56-82.53,0-139.82,62.19-139.82,118.02,0,10.36.62,15.03,3.18,24.76-1.07-4.27-1.63-8.54-1.63-12.7,0-58.16,58.24-98.46,118.09-98.46,81.05,0,146.73,65.71,146.73,146.73,0,63.53-36.53,118.5-89.67,144.93l.03.03c68.47-24.78,117.36-90.36,117.36-167.37,0-18.23-2.46-34.29-7.84-52.37"/>
        </g>
      </g>
    </g>
  </g>
</svg>