<svg xmlns="http://www.w3.org/2000/svg" xmlns:xlink="http://www.w3.org/1999/xlink" version="1.1" id="레이어_1" x="0px" y="0px" viewBox="0 0 386.1 354.7" style="enable-background:new 0 0 386.1 354.7;" xml:space="preserve">
<style type="text/css">
	.st0{fill:#86786F;}
</style>
<g id="레이어_2">
	<g id="Layer_1">
		<path class="st0" d="M154.3,129.6l-12.9,36.9h26.3l-12.9-36.9C154.6,129.7,154.4,129.6,154.3,129.6z"/>
		<path class="st0" d="M193,0C86.4,0,0,68.3,0,152.6c0,54.9,36.6,102.9,91.6,129.8c-4,15.1-14.6,54.6-16.7,63.1    c-2.6,10.5,3.8,10.4,8.1,7.5c3.3-2.2,52.9-35.9,74.3-50.5c11.9,1.8,23.8,2.6,35.8,2.6c106.6,0,193-68.3,193-152.6S299.6,0,193,0z     M98,194.5c0,5.2-4.2,9.3-9.3,9.4h-2c-5.2,0-9.3-4.2-9.4-9.4v-67.6H58.9c-5.3,0-9.6-4.3-9.6-9.6c0-5.3,4.3-9.6,9.6-9.6    c0,0,0,0,0,0h56.4c5.3,0,9.6,4.3,9.6,9.6c0,5.3-4.3,9.6-9.6,9.6c0,0,0,0,0,0H98V194.5z M190.4,203.3c-4.9,1.7-10.2-0.8-11.9-5.7    l-4.8-13.6h-38.5l-4.8,13.7c-1.7,4.9-7,7.4-11.9,5.7c-4.9-1.7-7.4-7-5.7-11.9l27.7-74.2c0.2-0.4,0.3-0.9,0.5-1.3    c1.1-5.5,6.8-9.7,13.7-9.7c6.2,0,11.4,3.4,13.2,8.1l0.1,0.1l28.1,77C197.8,196.4,195.3,201.6,190.4,203.3L190.4,203.3z M251,203.2    h-38.3c-4.8,0-8.7-3.9-8.7-8.7c0,0,0,0,0,0c0-0.6,0.1-1.1,0.2-1.7c-0.1-0.6-0.2-1.1-0.2-1.7v-74.4c0-5.7,4.7-10.4,10.4-10.4    c5.7,0,10.4,4.7,10.4,10.4c0,0,0,0,0,0v69.1H251c4.8,0.2,8.6,4.2,8.4,9C259.3,199.4,255.6,203.1,251,203.2L251,203.2z M333,202    c-4.1,3.1-9.9,2.2-13-1.9l-27.7-36.3l-6,5.9v23.7c0.2,5.8-4.3,10.6-10.1,10.7s-10.6-4.3-10.7-10.1c0-0.2,0-0.4,0-0.6v-76.7    c-0.2-5.8,4.3-10.6,10.1-10.7c5.8-0.2,10.6,4.3,10.7,10.1c0,0.2,0,0.4,0,0.6v27.1l32.7-32.7c3.6-3.6,9.4-3.6,13,0s3.6,9.4,0,13    l-26.4,26.4l29.2,38.4C337.9,193.1,337.1,198.9,333,202z"/>
	</g>
</g>
</svg>