<svg xmlns="http://www.w3.org/2000/svg" viewBox="0 0 162.12 48.73"><defs><style>.cls-1{fill:#847770;}</style></defs><g id="레이어_2" data-name="레이어 2"><g id="레이어_1-2" data-name="레이어 1"><g id="레이어_2-2" data-name="레이어 2"><g id="BI"><path class="cls-1" d="M108.38.64,86.28,23.8V.64h-6.8V26.77a5.59,5.59,0,0,0,9.38,4.13L99.72,19.57l9,12.83H117L104.51,14.55,117.79.64Z"/><path class="cls-1" d="M140.27,0a7.64,7.64,0,0,0-6.75,4.06L118.43,32.4h7.69l13.4-25.15.75-1.36c.29.53.62,1.12.74,1.36L154.37,32.4h7.75l-15-28.34A7.64,7.64,0,0,0,140.27,0Z"/><path class="cls-1" d="M24.4,0H14.85A14.86,14.86,0,0,0,0,14.86v3.32A14.86,14.86,0,0,0,14.85,33H24.4A14.86,14.86,0,0,0,39.24,18.18V14.86A14.86,14.86,0,0,0,24.4,0ZM6.8,14.86a8.06,8.06,0,0,1,8-8h9.55a8.07,8.07,0,0,1,8,8.05v3.32a8,8,0,0,1-8,8H14.8a8.06,8.06,0,0,1-8-8Z"/><path class="cls-1" d="M65.27,13.13H49.77V7.44h23V.64H52.6a9.64,9.64,0,0,0,0,19.28H68.12V25.6h-23v6.8H65.3a9.64,9.64,0,1,0,0-19.28Z"/><path class="cls-1" d="M2.2,48.6V41.27H6.56v.86H3.12v2.31H5.74v.81H3.12v2.56H6.55v.82Z"/><path class="cls-1" d="M12.72,48.6l2.4-3.74-2.26-3.59h1.08l1.8,2.86h0l1.69-2.88h1l-2.19,3.6,2.31,3.73H17.47l-1.87-3h0l-1.89,3Z"/><path class="cls-1" d="M26.52,48.6V42.13H24.35V41.3h5.28v.83H27.47v6.5Z"/><path class="cls-1" d="M36,48.6V41.27h4.36v.86H37v2.31h2.62v.81H37v2.56h3.43v.82Z"/><path class="cls-1" d="M47.12,48.6V41.27h2.15c1.64,0,2.45.7,2.45,2.08a1.87,1.87,0,0,1-1.38,1.92v.06l1.92,3.27H51.12l-1.77-3.1H48v3.1Zm1-3.86h1.14a1.62,1.62,0,0,0,1.14-.33,1.35,1.35,0,0,0,.35-1,1.23,1.23,0,0,0-.35-1,1.8,1.8,0,0,0-1.15-.3H48.12Z"/><path class="cls-1" d="M58.56,48.6V41.27h1V48.6Z"/><path class="cls-1" d="M69.32,48.72a3,3,0,0,1-2.35-1A4,4,0,0,1,66.12,45v-.2A3.92,3.92,0,0,1,67,42.14a3.3,3.3,0,0,1,4.73,0,4,4,0,0,1,.85,2.73v.2a4,4,0,0,1-.86,2.7A3,3,0,0,1,69.32,48.72Zm0-.79A1.88,1.88,0,0,0,71,47.18a3.3,3.3,0,0,0,.55-2v-.35c0-1.93-.73-2.9-2.21-2.9a1.9,1.9,0,0,0-1.62.75,3.23,3.23,0,0,0-.55,2V45c0,1.92.77,2.89,2.23,2.89Z"/><path class="cls-1" d="M79.12,48.6V41.27h2.15c1.63,0,2.45.7,2.45,2.08a1.87,1.87,0,0,1-1.38,1.92v.06l1.91,3.27h-1.1l-1.76-3.1H80.12v3.1Zm1-3.86h1.13a1.6,1.6,0,0,0,1.14-.33,1.36,1.36,0,0,0,.36-1,1.21,1.21,0,0,0-.36-1,1.74,1.74,0,0,0-1.15-.3H80.12Z"/><path class="cls-1" d="M98.64,48.6V41.27h1.41l2,6.06h0l2-6.06h1.41V48.6h-1v-6h0l-2,6h-.9l-2-6h0v6Z"/><path class="cls-1" d="M111.72,48.6l2.67-7.33h.93L118,48.6h-1l-.74-2.06h-2.85l-.73,2.06Zm3-6-1.11,3.16h2.28l-1.13-3.16Z"/><path class="cls-1" d="M127.64,48.13a2.66,2.66,0,0,1-1.86.57,4.26,4.26,0,0,1-2.1-.48v-.79a4.42,4.42,0,0,0,2,.48q1.53,0,1.53-1.26a1.11,1.11,0,0,0-.25-.78,2.11,2.11,0,0,0-.9-.5l-.76-.25a2.52,2.52,0,0,1-1.19-.72,1.92,1.92,0,0,1-.39-1.27,1.88,1.88,0,0,1,.6-1.44,2.43,2.43,0,0,1,1.75-.56,3.85,3.85,0,0,1,1.79.41v.8a4.38,4.38,0,0,0-1.82-.39,1.48,1.48,0,0,0-1,.28,1,1,0,0,0-.34.79,1.2,1.2,0,0,0,.21.76,1.55,1.55,0,0,0,.79.46l.75.25a3.2,3.2,0,0,1,1.32.74,1.87,1.87,0,0,1,.44,1.32A2.07,2.07,0,0,1,127.64,48.13Z"/><path class="cls-1" d="M136.32,48.6V42.13h-2.2V41.3h5.29v.83h-2.17v6.5Z"/><path class="cls-1" d="M145.79,48.6V41.27h4.33v.86h-3.4v2.31h2.63v.81h-2.63v2.56h3.44v.82Z"/><path class="cls-1" d="M156.9,48.6V41.27h2.15c1.63,0,2.45.7,2.45,2.08a1.87,1.87,0,0,1-1.38,1.92v.06L162,48.6h-1.1l-1.76-3.1h-1.31v3.1Zm1-3.86H159a1.6,1.6,0,0,0,1.14-.33,1.36,1.36,0,0,0,.36-1,1.21,1.21,0,0,0-.36-1,1.74,1.74,0,0,0-1.15-.3H157.9Z"/></g></g></g></g></svg>